<svg width="80" height="80" viewBox="0 0 80 80" fill="none" xmlns="http://www.w3.org/2000/svg">
<rect width="80" height="80" rx="8" fill="#2A4628"/>
<g clip-path="url(#clip0_2018_20104)">
<path d="M49.4941 31.071C49.0794 29.8944 48.3221 28.8688 47.3197 28.1262C46.3172 27.3837 45.1155 26.9581 43.8691 26.9043H35.5358C33.8782 26.9043 32.2885 27.5628 31.1163 28.7349C29.9442 29.907 29.2858 31.4967 29.2858 33.1543C29.2858 34.8119 29.9442 36.4016 31.1163 37.5737C32.2885 38.7458 33.8782 39.4043 35.5358 39.4043H43.8691C45.5267 39.4043 47.1164 40.0628 48.2885 41.2349C49.4606 42.407 50.1191 43.9967 50.1191 45.6543C50.1191 47.3119 49.4606 48.9016 48.2885 50.0737C47.1164 51.2458 45.5267 51.9043 43.8691 51.9043H35.5358C34.2894 51.8505 33.0877 51.4249 32.0852 50.6823C31.0827 49.9398 30.3254 48.9142 29.9108 47.7376" stroke="white" stroke-width="3.5" stroke-linecap="round" stroke-linejoin="round"/>
<path d="M40 20.9521V27.2021M40 52.2021V58.4521" stroke="white" stroke-width="3.5" stroke-linecap="round" stroke-linejoin="round"/>
</g>
<defs>
<clipPath id="clip0_2018_20104">
<rect width="50" height="50" fill="white" transform="translate(15 15)"/>
</clipPath>
</defs>
</svg>
