<svg width="80" height="80" viewBox="0 0 80 80" fill="none" xmlns="http://www.w3.org/2000/svg">
<rect width="80" height="80" rx="8" fill="#5B2C2B"/>
<g clip-path="url(#clip0_2018_20116)">
<path d="M50.4167 53.5416C48.7825 54.2906 47.006 54.6783 45.2083 54.6783C43.4107 54.6783 41.6342 54.2906 40 53.5416C38.2916 52.9518 36.4757 52.7396 34.6774 52.9194C32.879 53.0992 31.1411 53.6669 29.5833 54.5832C30.6988 54.1972 31.6821 53.5031 32.4195 52.5814C33.1569 51.6596 33.6182 50.5479 33.75 49.3749V33.7499C33.761 31.9248 34.3709 30.1537 35.486 28.7088C36.6011 27.2639 38.1598 26.225 39.9225 25.7518C41.6853 25.2785 43.5547 25.3971 45.2435 26.0893C46.9324 26.7815 48.3472 28.009 49.2708 29.5832M43.9583 42.0832H29.375" stroke="white" stroke-width="2" stroke-linecap="round" stroke-linejoin="round"/>
</g>
<defs>
<clipPath id="clip0_2018_20116">
<rect width="50" height="50" fill="white" transform="translate(15 15)"/>
</clipPath>
</defs>
</svg>
