<svg width="80" height="80" viewBox="0 0 80 80" fill="none" xmlns="http://www.w3.org/2000/svg">
<rect width="80" height="80" rx="8" fill="#5A4B2C"/>
<g clip-path="url(#clip0_2018_20145)">
<path d="M31.6666 54.5837V25.417H38.9583C40.1894 25.417 41.4085 25.6595 42.5459 26.1306C43.6834 26.6018 44.7169 27.2923 45.5874 28.1629C46.458 29.0334 47.1485 30.0669 47.6197 31.2043C48.0908 32.3418 48.3333 33.5608 48.3333 34.792C48.3333 36.0231 48.0908 37.2422 47.6197 38.3796C47.1485 39.5171 46.458 40.5506 45.5874 41.4211C44.7169 42.2917 43.6834 42.9822 42.5459 43.4534C41.4085 43.9245 40.1894 44.167 38.9583 44.167H31.6666" stroke="white" stroke-width="2" stroke-linecap="round" stroke-linejoin="round"/>
<path d="M52.5 31.667H27.5" stroke="white" stroke-width="2" stroke-linecap="round" stroke-linejoin="round"/>
<path d="M52.5 37.917H27.5" stroke="white" stroke-width="2" stroke-linecap="round" stroke-linejoin="round"/>
</g>
<defs>
<clipPath id="clip0_2018_20145">
<rect width="50" height="50" fill="white" transform="translate(15 15)"/>
</clipPath>
</defs>
</svg>
